<svg width="40" height="40" viewBox="0 0 40 40" fill="none" xmlns="http://www.w3.org/2000/svg">
<rect width="40" height="40" rx="20" fill="#D9DCF9"/>
<path d="M22.5307 26.9694C22.6004 27.039 22.6557 27.1218 22.6934 27.2128C22.7311 27.3039 22.7505 27.4014 22.7505 27.5C22.7505 27.5985 22.7311 27.6961 22.6934 27.7872C22.6557 27.8782 22.6004 27.9609 22.5307 28.0306C22.461 28.1003 22.3783 28.1556 22.2873 28.1933C22.1962 28.231 22.0986 28.2504 22.0001 28.2504C21.9016 28.2504 21.804 28.231 21.7129 28.1933C21.6219 28.1556 21.5392 28.1003 21.4695 28.0306L13.9695 20.5306C13.8997 20.461 13.8444 20.3782 13.8067 20.2872C13.7689 20.1961 13.7495 20.0986 13.7495 20C13.7495 19.9014 13.7689 19.8038 13.8067 19.7128C13.8444 19.6217 13.8997 19.539 13.9695 19.4694L21.4695 11.9694C21.6102 11.8286 21.8011 11.7496 22.0001 11.7496C22.1991 11.7496 22.39 11.8286 22.5307 11.9694C22.6715 12.1101 22.7505 12.301 22.7505 12.5C22.7505 12.699 22.6715 12.8899 22.5307 13.0306L15.5604 20L22.5307 26.9694Z" fill="#28359E"/>
</svg>
