<svg width="40" height="40" viewBox="0 0 40 40" fill="none" xmlns="http://www.w3.org/2000/svg">
<path d="M32.5 5H12.5C11.837 5 11.2011 5.26339 10.7322 5.73223C10.2634 6.20107 10 6.83696 10 7.5V10H7.5C6.83696 10 6.20107 10.2634 5.73223 10.7322C5.26339 11.2011 5 11.837 5 12.5V32.5C5 33.163 5.26339 33.7989 5.73223 34.2678C6.20107 34.7366 6.83696 35 7.5 35H27.5C28.163 35 28.7989 34.7366 29.2678 34.2678C29.7366 33.7989 30 33.163 30 32.5V30H32.5C33.163 30 33.7989 29.7366 34.2678 29.2678C34.7366 28.7989 35 28.163 35 27.5V7.5C35 6.83696 34.7366 6.20107 34.2678 5.73223C33.7989 5.26339 33.163 5 32.5 5ZM12.5 7.5H32.5V18.3406L29.8906 15.7312C29.4218 15.2628 28.7862 14.9996 28.1234 14.9996C27.4607 14.9996 26.825 15.2628 26.3562 15.7312L14.5891 27.5H12.5V7.5ZM27.5 32.5H7.5V12.5H10V27.5C10 28.163 10.2634 28.7989 10.7322 29.2678C11.2011 29.7366 11.837 30 12.5 30H27.5V32.5ZM32.5 27.5H18.125L28.125 17.5L32.5 21.875V27.5ZM18.75 17.5C19.4917 17.5 20.2167 17.2801 20.8334 16.868C21.4501 16.456 21.9307 15.8703 22.2145 15.1851C22.4984 14.4998 22.5726 13.7458 22.4279 13.0184C22.2833 12.291 21.9261 11.6228 21.4017 11.0983C20.8772 10.5739 20.209 10.2167 19.4816 10.0721C18.7542 9.92736 18.0002 10.0016 17.3149 10.2855C16.6297 10.5693 16.044 11.0499 15.632 11.6666C15.2199 12.2833 15 13.0083 15 13.75C15 14.7446 15.3951 15.6984 16.0983 16.4017C16.8016 17.1049 17.7554 17.5 18.75 17.5ZM18.75 12.5C18.9972 12.5 19.2389 12.5733 19.4445 12.7107C19.65 12.848 19.8102 13.0432 19.9049 13.2716C19.9995 13.5001 20.0242 13.7514 19.976 13.9939C19.9278 14.2363 19.8087 14.4591 19.6339 14.6339C19.4591 14.8087 19.2363 14.9278 18.9939 14.976C18.7514 15.0242 18.5001 14.9995 18.2716 14.9049C18.0432 14.8102 17.848 14.65 17.7107 14.4445C17.5733 14.2389 17.5 13.9972 17.5 13.75C17.5 13.4185 17.6317 13.1005 17.8661 12.8661C18.1005 12.6317 18.4185 12.5 18.75 12.5Z" fill="#8E8E8E"/>
</svg>
