<svg width="120" height="120" viewBox="0 0 120 120" fill="none" xmlns="http://www.w3.org/2000/svg">
<g filter="url(#filter0_i_553_1219)">
<rect width="120" height="120" rx="60" fill="url(#paint0_linear_553_1219)"/>
<rect x="2.5" y="2.5" width="115" height="115" rx="57.5" stroke="white" stroke-width="5"/>
<g clip-path="url(#clip0_553_1219)">
<path d="M78.6667 92H76C75.2928 92 74.6145 91.7191 74.1144 91.219C73.6143 90.7189 73.3333 90.0406 73.3333 89.3333C73.3333 88.6261 73.6143 87.9478 74.1144 87.4477C74.6145 86.9476 75.2928 86.6667 76 86.6667H78.6667C80.7884 86.6667 82.8232 85.8238 84.3235 84.3235C85.8238 82.8232 86.6667 80.7884 86.6667 78.6667V76C86.6667 75.2928 86.9476 74.6145 87.4477 74.1144C87.9478 73.6143 88.6261 73.3333 89.3333 73.3333C90.0406 73.3333 90.7189 73.6143 91.219 74.1144C91.7191 74.6145 92 75.2928 92 76V78.6667C91.9958 82.2016 90.5897 85.5905 88.0901 88.0901C85.5905 90.5897 82.2016 91.9958 78.6667 92V92ZM92 44V41.3333C91.9958 37.7984 90.5897 34.4095 88.0901 31.9099C85.5905 29.4104 82.2016 28.0042 78.6667 28H76C75.2928 28 74.6145 28.281 74.1144 28.781C73.6143 29.2811 73.3333 29.9594 73.3333 30.6667C73.3333 31.3739 73.6143 32.0522 74.1144 32.5523C74.6145 33.0524 75.2928 33.3333 76 33.3333H78.6667C80.7884 33.3333 82.8232 34.1762 84.3235 35.6765C85.8238 37.1768 86.6667 39.2116 86.6667 41.3333V44C86.6667 44.7072 86.9476 45.3855 87.4477 45.8856C87.9478 46.3857 88.6261 46.6667 89.3333 46.6667C90.0406 46.6667 90.7189 46.3857 91.219 45.8856C91.7191 45.3855 92 44.7072 92 44ZM46.6667 89.3333C46.6667 88.6261 46.3857 87.9478 45.8856 87.4477C45.3855 86.9476 44.7072 86.6667 44 86.6667H41.3333C39.2116 86.6667 37.1768 85.8238 35.6765 84.3235C34.1762 82.8232 33.3333 80.7884 33.3333 78.6667V76C33.3333 75.2928 33.0524 74.6145 32.5523 74.1144C32.0522 73.6143 31.3739 73.3333 30.6667 73.3333C29.9594 73.3333 29.2811 73.6143 28.781 74.1144C28.281 74.6145 28 75.2928 28 76V78.6667C28.0042 82.2016 29.4104 85.5905 31.9099 88.0901C34.4095 90.5897 37.7984 91.9958 41.3333 92H44C44.7072 92 45.3855 91.7191 45.8856 91.219C46.3857 90.7189 46.6667 90.0406 46.6667 89.3333ZM33.3333 44V41.3333C33.3333 39.2116 34.1762 37.1768 35.6765 35.6765C37.1768 34.1762 39.2116 33.3333 41.3333 33.3333H44C44.7072 33.3333 45.3855 33.0524 45.8856 32.5523C46.3857 32.0522 46.6667 31.3739 46.6667 30.6667C46.6667 29.9594 46.3857 29.2811 45.8856 28.781C45.3855 28.281 44.7072 28 44 28H41.3333C37.7984 28.0042 34.4095 29.4104 31.9099 31.9099C29.4104 34.4095 28.0042 37.7984 28 41.3333L28 44C28 44.7072 28.281 45.3855 28.781 45.8856C29.2811 46.3857 29.9594 46.6667 30.6667 46.6667C31.3739 46.6667 32.0522 46.3857 32.5523 45.8856C33.0524 45.3855 33.3333 44.7072 33.3333 44ZM70.6667 60C70.6667 57.8903 70.0411 55.828 68.869 54.0739C67.6969 52.3198 66.031 50.9526 64.082 50.1453C62.1329 49.3379 59.9882 49.1267 57.919 49.5383C55.8499 49.9499 53.9493 50.9658 52.4575 52.4575C50.9658 53.9493 49.9499 55.8499 49.5383 57.919C49.1267 59.9882 49.3379 62.1329 50.1453 64.082C50.9526 66.031 52.3198 67.6969 54.0739 68.869C55.828 70.0411 57.8903 70.6667 60 70.6667C62.829 70.6667 65.5421 69.5429 67.5425 67.5425C69.5429 65.5421 70.6667 62.829 70.6667 60Z" fill="white"/>
</g>
</g>
<defs>
<filter id="filter0_i_553_1219" x="0" y="0" width="120" height="121" filterUnits="userSpaceOnUse" color-interpolation-filters="sRGB">
<feFlood flood-opacity="0" result="BackgroundImageFix"/>
<feBlend mode="normal" in="SourceGraphic" in2="BackgroundImageFix" result="shape"/>
<feColorMatrix in="SourceAlpha" type="matrix" values="0 0 0 0 0 0 0 0 0 0 0 0 0 0 0 0 0 0 127 0" result="hardAlpha"/>
<feOffset dy="1"/>
<feGaussianBlur stdDeviation="6"/>
<feComposite in2="hardAlpha" operator="arithmetic" k2="-1" k3="1"/>
<feColorMatrix type="matrix" values="0 0 0 0 0 0 0 0 0 0 0 0 0 0 0 0 0 0 0.45 0"/>
<feBlend mode="normal" in2="shape" result="effect1_innerShadow_553_1219"/>
</filter>
<linearGradient id="paint0_linear_553_1219" x1="60" y1="0" x2="60" y2="120" gradientUnits="userSpaceOnUse">
<stop stop-color="#725EEA"/>
<stop offset="1" stop-color="#492FE4"/>
</linearGradient>
<clipPath id="clip0_553_1219">
<rect width="64" height="64" fill="white" transform="translate(28 28)"/>
</clipPath>
</defs>
</svg>
