<svg width="160" height="160" viewBox="0 0 160 160" fill="none" xmlns="http://www.w3.org/2000/svg">
<g filter="url(#filter0_i_425_1214)">
<rect width="160" height="160" rx="80" fill="url(#paint0_linear_425_1214)"/>
<rect x="2.5" y="2.5" width="155" height="155" rx="77.5" stroke="white" stroke-width="5"/>
<g clip-path="url(#clip0_425_1214)">
<path d="M103.333 120H100C99.1159 120 98.2681 119.649 97.643 119.024C97.0179 118.399 96.6667 117.551 96.6667 116.667C96.6667 115.783 97.0179 114.935 97.643 114.31C98.2681 113.685 99.1159 113.333 100 113.333H103.333C105.985 113.333 108.529 112.28 110.404 110.404C112.28 108.529 113.333 105.985 113.333 103.333V100C113.333 99.1159 113.685 98.2681 114.31 97.643C114.935 97.0179 115.783 96.6667 116.667 96.6667C117.551 96.6667 118.399 97.0179 119.024 97.643C119.649 98.2681 120 99.1159 120 100V103.333C119.995 107.752 118.237 111.988 115.113 115.113C111.988 118.237 107.752 119.995 103.333 120V120ZM120 60V56.6667C119.995 52.248 118.237 48.0119 115.113 44.8874C111.988 41.7629 107.752 40.0053 103.333 40H100C99.1159 40 98.2681 40.3512 97.643 40.9763C97.0179 41.6014 96.6667 42.4493 96.6667 43.3333C96.6667 44.2174 97.0179 45.0652 97.643 45.6904C98.2681 46.3155 99.1159 46.6667 100 46.6667H103.333C105.985 46.6667 108.529 47.7202 110.404 49.5956C112.28 51.471 113.333 54.0145 113.333 56.6667V60C113.333 60.8841 113.685 61.7319 114.31 62.357C114.935 62.9821 115.783 63.3333 116.667 63.3333C117.551 63.3333 118.399 62.9821 119.024 62.357C119.649 61.7319 120 60.8841 120 60ZM63.3333 116.667C63.3333 115.783 62.9821 114.935 62.357 114.31C61.7319 113.685 60.8841 113.333 60 113.333H56.6667C54.0145 113.333 51.471 112.28 49.5956 110.404C47.7202 108.529 46.6667 105.985 46.6667 103.333V100C46.6667 99.1159 46.3155 98.2681 45.6904 97.643C45.0652 97.0179 44.2174 96.6667 43.3333 96.6667C42.4493 96.6667 41.6014 97.0179 40.9763 97.643C40.3512 98.2681 40 99.1159 40 100V103.333C40.0053 107.752 41.7629 111.988 44.8874 115.113C48.0119 118.237 52.248 119.995 56.6667 120H60C60.8841 120 61.7319 119.649 62.357 119.024C62.9821 118.399 63.3333 117.551 63.3333 116.667ZM46.6667 60V56.6667C46.6667 54.0145 47.7202 51.471 49.5956 49.5956C51.471 47.7202 54.0145 46.6667 56.6667 46.6667H60C60.8841 46.6667 61.7319 46.3155 62.357 45.6904C62.9821 45.0652 63.3333 44.2174 63.3333 43.3333C63.3333 42.4493 62.9821 41.6014 62.357 40.9763C61.7319 40.3512 60.8841 40 60 40H56.6667C52.248 40.0053 48.0119 41.7629 44.8874 44.8874C41.7629 48.0119 40.0053 52.248 40 56.6667L40 60C40 60.8841 40.3512 61.7319 40.9763 62.357C41.6014 62.9821 42.4493 63.3333 43.3333 63.3333C44.2174 63.3333 45.0652 62.9821 45.6904 62.357C46.3155 61.7319 46.6667 60.8841 46.6667 60ZM93.3333 80C93.3333 77.3629 92.5513 74.7851 91.0863 72.5924C89.6212 70.3997 87.5388 68.6908 85.1024 67.6816C82.6661 66.6724 79.9852 66.4084 77.3988 66.9229C74.8124 67.4373 72.4366 68.7072 70.5719 70.5719C68.7072 72.4366 67.4373 74.8124 66.9229 77.3988C66.4084 79.9852 66.6724 82.6661 67.6816 85.1024C68.6908 87.5388 70.3997 89.6212 72.5924 91.0863C74.7851 92.5513 77.3629 93.3333 80 93.3333C83.5362 93.3333 86.9276 91.9286 89.4281 89.4281C91.9286 86.9276 93.3333 83.5362 93.3333 80Z" fill="white"/>
</g>
</g>
<defs>
<filter id="filter0_i_425_1214" x="0" y="0" width="160" height="161" filterUnits="userSpaceOnUse" color-interpolation-filters="sRGB">
<feFlood flood-opacity="0" result="BackgroundImageFix"/>
<feBlend mode="normal" in="SourceGraphic" in2="BackgroundImageFix" result="shape"/>
<feColorMatrix in="SourceAlpha" type="matrix" values="0 0 0 0 0 0 0 0 0 0 0 0 0 0 0 0 0 0 127 0" result="hardAlpha"/>
<feOffset dy="1"/>
<feGaussianBlur stdDeviation="6"/>
<feComposite in2="hardAlpha" operator="arithmetic" k2="-1" k3="1"/>
<feColorMatrix type="matrix" values="0 0 0 0 0 0 0 0 0 0 0 0 0 0 0 0 0 0 0.45 0"/>
<feBlend mode="normal" in2="shape" result="effect1_innerShadow_425_1214"/>
</filter>
<linearGradient id="paint0_linear_425_1214" x1="80" y1="0" x2="80" y2="160" gradientUnits="userSpaceOnUse">
<stop stop-color="#725EEA"/>
<stop offset="1" stop-color="#492FE4"/>
</linearGradient>
<clipPath id="clip0_425_1214">
<rect width="80" height="80" fill="white" transform="translate(40 40)"/>
</clipPath>
</defs>
</svg>
