<svg width="20" height="21" viewBox="0 0 20 21" fill="none" xmlns="http://www.w3.org/2000/svg">
<path d="M12.5 1.75C11.5135 1.75088 10.5412 1.98506 9.66254 2.43341C8.78384 2.88175 8.02363 3.53156 7.44398 4.32977C6.86433 5.12798 6.48167 6.05196 6.32725 7.02627C6.17284 8.00059 6.25104 8.99761 6.55547 9.93594L2.05781 14.4328C1.99979 14.4909 1.95378 14.5598 1.92241 14.6357C1.89105 14.7116 1.87494 14.7929 1.875 14.875V18C1.875 18.1658 1.94085 18.3247 2.05806 18.4419C2.17527 18.5592 2.33424 18.625 2.5 18.625H5.625C5.79076 18.625 5.94973 18.5592 6.06694 18.4419C6.18415 18.3247 6.25 18.1658 6.25 18V16.75H7.5C7.66576 16.75 7.82473 16.6842 7.94194 16.5669C8.05915 16.4497 8.125 16.2908 8.125 16.125V14.875H9.375C9.4571 14.8751 9.53841 14.859 9.61428 14.8276C9.69015 14.7962 9.7591 14.7502 9.81719 14.6922L10.5641 13.9445C11.4231 14.2234 12.3323 14.3128 13.2292 14.2066C14.1261 14.1004 14.9893 13.8011 15.7593 13.3292C16.5294 12.8574 17.1881 12.2243 17.69 11.4734C18.192 10.7226 18.5252 9.87191 18.6668 8.97994C18.8084 8.08797 18.755 7.1759 18.5103 6.30655C18.2656 5.43719 17.8354 4.63119 17.2493 3.94405C16.6632 3.25691 15.9351 2.70496 15.1153 2.3262C14.2954 1.94743 13.4031 1.75085 12.5 1.75ZM14.0625 7.6875C13.8153 7.6875 13.5736 7.61419 13.368 7.47684C13.1625 7.33949 13.0023 7.14426 12.9076 6.91585C12.813 6.68745 12.7883 6.43611 12.8365 6.19364C12.8847 5.95116 13.0038 5.72843 13.1786 5.55362C13.3534 5.3788 13.5762 5.25975 13.8186 5.21152C14.0611 5.16329 14.3124 5.18804 14.5409 5.28265C14.7693 5.37726 14.9645 5.53748 15.1018 5.74304C15.2392 5.9486 15.3125 6.19027 15.3125 6.4375C15.3125 6.76902 15.1808 7.08696 14.9464 7.32138C14.712 7.5558 14.394 7.6875 14.0625 7.6875Z" fill="#8A91E6"/>
</svg>
