<svg width="20" height="25" viewBox="0 0 20 25" fill="none" xmlns="http://www.w3.org/2000/svg">
<g clip-path="url(#clip0_160_5495)">
<path d="M17.9693 8.19434L12.3573 13.8063C11.7316 14.4305 10.8838 14.781 10 14.781C9.11617 14.781 8.26842 14.4305 7.64267 13.8063L2.03067 8.19434C2.02133 8.29967 2 8.395 2 8.49967V16.4997C2.00106 17.3834 2.35259 18.2306 2.97748 18.8555C3.60237 19.4804 4.4496 19.8319 5.33333 19.833H14.6667C15.5504 19.8319 16.3976 19.4804 17.0225 18.8555C17.6474 18.2306 17.9989 17.3834 18 16.4997V8.49967C18 8.395 17.9787 8.29967 17.9693 8.19434Z" fill="#8A91E5"/>
<path d="M11.4148 12.8638L17.5041 6.77384C17.2091 6.28472 16.7931 5.87986 16.2961 5.59832C15.7991 5.31679 15.2379 5.16806 14.6668 5.1665H5.33343C4.76224 5.16806 4.20109 5.31679 3.70411 5.59832C3.20713 5.87986 2.79108 6.28472 2.49609 6.77384L8.58543 12.8638C8.96114 13.238 9.46982 13.4481 10.0001 13.4481C10.5304 13.4481 11.039 13.238 11.4148 12.8638Z" fill="#8A91E5"/>
</g>
<defs>
<clipPath id="clip0_160_5495">
<rect width="16" height="16" fill="white" transform="translate(2 4.5)"/>
</clipPath>
</defs>
</svg>
