<svg width="92" height="92" viewBox="0 0 92 92" fill="none" xmlns="http://www.w3.org/2000/svg">
<rect x="2.5" y="2.5" width="87" height="87" rx="43.5" fill="#5F47EE"/>
<rect x="2.5" y="2.5" width="87" height="87" rx="43.5" stroke="white" stroke-width="5"/>
<path d="M70.4899 34.8649L40.4899 64.8649C40.2286 65.1271 39.9181 65.3352 39.5762 65.4771C39.2344 65.6191 38.8678 65.6922 38.4977 65.6922C38.1275 65.6922 37.761 65.6191 37.4191 65.4771C37.0773 65.3352 36.7668 65.1271 36.5055 64.8649L23.3805 51.7399C23.1189 51.4783 22.9113 51.1677 22.7698 50.8259C22.6282 50.4841 22.5553 50.1177 22.5553 49.7477C22.5553 49.3778 22.6282 49.0114 22.7698 48.6696C22.9113 48.3278 23.1189 48.0172 23.3805 47.7556C23.6421 47.4939 23.9527 47.2864 24.2945 47.1448C24.6363 47.0032 25.0027 46.9304 25.3727 46.9304C25.7427 46.9304 26.109 47.0032 26.4508 47.1448C26.7927 47.2864 27.1032 47.4939 27.3649 47.7556L38.5 58.8907L66.5102 30.8852C67.0385 30.3569 67.7551 30.0601 68.5024 30.0601C69.2496 30.0601 69.9662 30.3569 70.4945 30.8852C71.0229 31.4136 71.3197 32.1302 71.3197 32.8774C71.3197 33.6247 71.0229 34.3413 70.4945 34.8696L70.4899 34.8649Z" fill="white"/>
</svg>
