<svg width="40" height="40" viewBox="0 0 40 40" fill="none" xmlns="http://www.w3.org/2000/svg">
<path d="M36.0813 33.1249C33.7016 29.0108 30.0344 26.0608 25.7547 24.6624C27.8717 23.4021 29.5164 21.4819 30.4363 19.1964C31.3563 16.911 31.5005 14.3867 30.847 12.0114C30.1935 9.63597 28.7783 7.54078 26.8188 6.04755C24.8592 4.55432 22.4637 3.74561 20.0001 3.74561C17.5364 3.74561 15.1409 4.55432 13.1813 6.04755C11.2218 7.54078 9.80661 9.63597 9.15309 12.0114C8.49957 14.3867 8.64385 16.911 9.56379 19.1964C10.4837 21.4819 12.1284 23.4021 14.2454 24.6624C9.96568 26.0592 6.29849 29.0092 3.91881 33.1249C3.83154 33.2672 3.77366 33.4255 3.74857 33.5905C3.72349 33.7555 3.73171 33.9239 3.77275 34.0857C3.81379 34.2475 3.88683 34.3995 3.98754 34.5326C4.08826 34.6657 4.21462 34.7773 4.35916 34.8608C4.5037 34.9443 4.6635 34.9979 4.82913 35.0187C4.99476 35.0394 5.16287 35.0268 5.32353 34.9815C5.48419 34.9362 5.63415 34.8592 5.76457 34.755C5.89499 34.6508 6.00321 34.5215 6.08287 34.3749C9.02662 29.2874 14.2297 26.2499 20.0001 26.2499C25.7704 26.2499 30.9735 29.2874 33.9172 34.3749C33.9969 34.5215 34.1051 34.6508 34.2355 34.755C34.366 34.8592 34.5159 34.9362 34.6766 34.9815C34.8372 35.0268 35.0054 35.0394 35.171 35.0187C35.3366 34.9979 35.4964 34.9443 35.641 34.8608C35.7855 34.7773 35.9119 34.6657 36.0126 34.5326C36.1133 34.3995 36.1863 34.2475 36.2274 34.0857C36.2684 33.9239 36.2766 33.7555 36.2515 33.5905C36.2265 33.4255 36.1686 33.2672 36.0813 33.1249ZM11.2501 14.9999C11.2501 13.2693 11.7632 11.5775 12.7247 10.1386C13.6862 8.69969 15.0527 7.57818 16.6516 6.91591C18.2504 6.25364 20.0098 6.08036 21.7071 6.41798C23.4044 6.75561 24.9635 7.58896 26.1872 8.81267C27.4109 10.0364 28.2443 11.5955 28.5819 13.2928C28.9195 14.9902 28.7463 16.7495 28.084 18.3483C27.4217 19.9472 26.3002 21.3138 24.8613 22.2752C23.4224 23.2367 21.7306 23.7499 20.0001 23.7499C17.6802 23.7474 15.456 22.8247 13.8156 21.1843C12.1752 19.5439 11.2525 17.3197 11.2501 14.9999Z" fill="#8E8E8E"/>
</svg>
