<svg width="40" height="40" viewBox="0 0 40 40" fill="none" xmlns="http://www.w3.org/2000/svg">
<path d="M36.0828 34.3749C35.973 34.5649 35.8152 34.7227 35.6251 34.8325C35.435 34.9422 35.2194 34.9999 34.9999 34.9999H4.99994C4.78063 34.9996 4.56523 34.9417 4.37539 34.8319C4.18554 34.7221 4.02793 34.5643 3.91837 34.3743C3.80881 34.1843 3.75116 33.9688 3.75122 33.7495C3.75128 33.5302 3.80903 33.3148 3.91869 33.1249C6.29838 29.0108 9.96556 26.0608 14.2453 24.6624C12.1283 23.4021 10.4836 21.4819 9.56367 19.1964C8.64373 16.911 8.49945 14.3867 9.15297 12.0114C9.80649 9.63597 11.2217 7.54078 13.1812 6.04755C15.1408 4.55432 17.5363 3.74561 19.9999 3.74561C22.4636 3.74561 24.8591 4.55432 26.8187 6.04755C28.7782 7.54078 30.1934 9.63597 30.8469 12.0114C31.5004 14.3867 31.3561 16.911 30.4362 19.1964C29.5163 21.4819 27.8716 23.4021 25.7546 24.6624C30.0343 26.0608 33.7015 29.0108 36.0812 33.1249C36.1911 33.3147 36.2492 33.5302 36.2494 33.7496C36.2497 33.9691 36.1922 34.1847 36.0828 34.3749Z" fill="#725EEA"/>
</svg>
