<svg width="20" height="21" viewBox="0 0 20 21" fill="none" xmlns="http://www.w3.org/2000/svg">
<path d="M18.7525 7.84375C18.7514 13.3125 10.6419 17.7391 10.2966 17.9219C10.2056 17.9708 10.1038 17.9965 10.0005 17.9965C9.89714 17.9965 9.79541 17.9708 9.70441 17.9219C9.35913 17.7391 1.2514 13.3125 1.25247 7.84375C1.25417 6.55955 1.7652 5.32837 2.67344 4.4203C3.58168 3.51223 4.81297 3.00145 6.09717 3C7.71045 3 9.12281 3.69375 10.0031 4.86641C10.8838 3.69375 12.2964 3 13.9097 3C15.1939 3.00145 16.425 3.51223 17.3328 4.4203C18.2407 5.32837 18.7513 6.55955 18.7525 7.84375Z" fill="#8A90E6"/>
</svg>
