<svg width="40" height="40" viewBox="0 0 40 40" fill="none" xmlns="http://www.w3.org/2000/svg">
<rect width="40" height="40" rx="10" fill="#725EEA"/>
<path d="M25.25 23.0626C24.078 23.0607 22.9459 23.4888 22.0683 24.2657L17.6047 21.4001C17.8818 20.4873 17.8818 19.5128 17.6047 18.6001L22.0683 15.7344C22.9371 16.498 24.0527 16.9217 25.2094 16.9274C26.366 16.933 27.4857 16.5204 28.362 15.7654C29.2383 15.0105 29.8121 13.9641 29.9775 12.8194C30.143 11.6746 29.889 10.5086 29.2624 9.53642C28.6358 8.56421 27.6788 7.85133 26.5679 7.52923C25.457 7.20713 24.2671 7.29754 23.2176 7.78378C22.1682 8.27003 21.3299 9.11931 20.8573 10.175C20.3848 11.2308 20.3099 12.4217 20.6464 13.5283L16.1818 16.3907C15.4875 15.7771 14.6308 15.377 13.7146 15.2384C12.7985 15.0998 11.8618 15.2287 11.0171 15.6095C10.1724 15.9903 9.45555 16.6068 8.9527 17.3851C8.44986 18.1633 8.18237 19.0702 8.18237 19.9968C8.18237 20.9234 8.44986 21.8302 8.9527 22.6085C9.45555 23.3868 10.1724 24.0033 11.0171 24.3841C11.8618 24.7649 12.7985 24.8937 13.7146 24.7552C14.6308 24.6166 15.4875 24.2165 16.1818 23.6029L20.6454 26.4751C20.3508 27.4437 20.3693 28.4805 20.6981 29.438C21.0269 30.3955 21.6492 31.2249 22.4766 31.8083C23.3041 32.3916 24.2944 32.6992 25.3067 32.6872C26.319 32.6752 27.3018 32.3443 28.1151 31.7415C28.9285 31.1387 29.5311 30.2948 29.8371 29.3298C30.1431 28.3648 30.137 27.3278 29.8196 26.3664C29.5023 25.4051 28.8898 24.5683 28.0694 23.9751C27.249 23.382 26.2624 23.0626 25.25 23.0626ZM25.25 9.93756C25.6827 9.93756 26.1056 10.0659 26.4653 10.3062C26.8251 10.5466 27.1055 10.8882 27.271 11.2879C27.4366 11.6877 27.4799 12.1275 27.3955 12.5518C27.3111 12.9762 27.1028 13.3659 26.7968 13.6719C26.4909 13.9778 26.1011 14.1861 25.6768 14.2705C25.2525 14.3549 24.8126 14.3116 24.4129 14.146C24.0132 13.9805 23.6716 13.7001 23.4312 13.3404C23.1908 12.9806 23.0625 12.5577 23.0625 12.1251C23.0625 11.5449 23.293 10.9885 23.7032 10.5783C24.1135 10.168 24.6699 9.93756 25.25 9.93756ZM13 22.1876C12.5674 22.1876 12.1445 22.0593 11.7847 21.8189C11.425 21.5785 11.1446 21.2369 10.9791 20.8372C10.8135 20.4375 10.7702 19.9976 10.8546 19.5733C10.939 19.149 11.1473 18.7592 11.4532 18.4533C11.7592 18.1473 12.1489 17.939 12.5733 17.8546C12.9976 17.7702 13.4374 17.8135 13.8372 17.9791C14.2369 18.1446 14.5785 18.425 14.8189 18.7848C15.0592 19.1445 15.1875 19.5674 15.1875 20.0001C15.1875 20.5802 14.9571 21.1366 14.5468 21.5469C14.1366 21.9571 13.5802 22.1876 13 22.1876ZM25.25 30.0626C24.8174 30.0626 24.3945 29.9343 24.0347 29.6939C23.675 29.4535 23.3946 29.1119 23.2291 28.7122C23.0635 28.3125 23.0202 27.8726 23.1046 27.4483C23.189 27.024 23.3973 26.6342 23.7032 26.3283C24.0092 26.0223 24.3989 25.814 24.8233 25.7296C25.2476 25.6452 25.6874 25.6885 26.0872 25.8541C26.4869 26.0196 26.8285 26.3 27.0689 26.6598C27.3092 27.0195 27.4375 27.4424 27.4375 27.8751C27.4375 28.4552 27.2071 29.0116 26.7968 29.4219C26.3866 29.8321 25.8302 30.0626 25.25 30.0626Z" fill="white"/>
</svg>
