<svg width="30" height="30" viewBox="0 0 30 30" fill="none" xmlns="http://www.w3.org/2000/svg">
<path d="M9 12H1.8C1.32261 12 0.864773 11.8104 0.527208 11.4728C0.189642 11.1352 0 10.6774 0 10.2V3C0 2.52261 0.189642 2.06477 0.527208 1.72721C0.864773 1.38964 1.32261 1.2 1.8 1.2C2.27739 1.2 2.73523 1.38964 3.07279 1.72721C3.41036 2.06477 3.6 2.52261 3.6 3V5.079C6.0975 2.619 9.9435 0 15 0C21.669 0 25.704 3.9585 25.8735 4.1265C26.2072 4.46438 26.3939 4.92046 26.3929 5.39537C26.3918 5.87028 26.2031 6.32553 25.8679 6.66194C25.5327 6.99835 25.0781 7.18864 24.6032 7.19137C24.1283 7.1941 23.6716 7.00903 23.3325 6.6765C23.2665 6.6135 20.1 3.6 15 3.6C10.65 3.6 7.359 6.252 5.4 8.4H9C9.47739 8.4 9.93523 8.58964 10.2728 8.92721C10.6104 9.26477 10.8 9.72261 10.8 10.2C10.8 10.6774 10.6104 11.1352 10.2728 11.4728C9.93523 11.8104 9.47739 12 9 12ZM28.2 18H21C20.5226 18 20.0648 18.1896 19.7272 18.5272C19.3896 18.8648 19.2 19.3226 19.2 19.8C19.2 20.2774 19.3896 20.7352 19.7272 21.0728C20.0648 21.4104 20.5226 21.6 21 21.6H24.6C22.65 23.748 19.35 26.4 15 26.4C9.9 26.4 6.7335 23.3865 6.6675 23.322C6.32844 22.9895 5.8717 22.8044 5.3968 22.8071C4.9219 22.8099 4.46731 23.0002 4.1321 23.3366C3.79688 23.673 3.60819 24.1282 3.60714 24.6031C3.60609 25.078 3.79277 25.5341 4.1265 25.872C4.296 26.0415 8.331 30 15 30C20.0565 30 23.9025 27.381 26.4 24.921V27C26.4 27.4774 26.5896 27.9352 26.9272 28.2728C27.2648 28.6104 27.7226 28.8 28.2 28.8C28.6774 28.8 29.1352 28.6104 29.4728 28.2728C29.8104 27.9352 30 27.4774 30 27V19.8C30 19.3226 29.8104 18.8648 29.4728 18.5272C29.1352 18.1896 28.6774 18 28.2 18Z" fill="#725EEA"/>
</svg>
