<svg width="30" height="29" viewBox="0 0 30 29" fill="none" xmlns="http://www.w3.org/2000/svg">
<g filter="url(#filter0_d_165_6143)">
<path d="M25.5 8.8125C25.5 15.375 15.7697 20.6869 15.3553 20.9062C15.2461 20.965 15.124 20.9958 15 20.9958C14.876 20.9958 14.7539 20.965 14.6447 20.9062C14.2303 20.6869 4.5 15.375 4.5 8.8125C4.50174 7.27146 5.11468 5.79404 6.20436 4.70436C7.29404 3.61468 8.77146 3.00174 10.3125 3C12.2484 3 13.9434 3.8325 15 5.23969C16.0566 3.8325 17.7516 3 19.6875 3C21.2285 3.00174 22.706 3.61468 23.7956 4.70436C24.8853 5.79404 25.4983 7.27146 25.5 8.8125Z" fill="#848484"/>
</g>
<defs>
<filter id="filter0_d_165_6143" x="-1" y="0" width="32" height="32" filterUnits="userSpaceOnUse" color-interpolation-filters="sRGB">
<feFlood flood-opacity="0" result="BackgroundImageFix"/>
<feColorMatrix in="SourceAlpha" type="matrix" values="0 0 0 0 0 0 0 0 0 0 0 0 0 0 0 0 0 0 127 0" result="hardAlpha"/>
<feOffset dy="4"/>
<feGaussianBlur stdDeviation="2"/>
<feComposite in2="hardAlpha" operator="out"/>
<feColorMatrix type="matrix" values="0 0 0 0 0 0 0 0 0 0 0 0 0 0 0 0 0 0 0.25 0"/>
<feBlend mode="normal" in2="BackgroundImageFix" result="effect1_dropShadow_165_6143"/>
<feBlend mode="normal" in="SourceGraphic" in2="effect1_dropShadow_165_6143" result="shape"/>
</filter>
</defs>
</svg>
