<svg width="60" height="60" viewBox="0 0 60 60" fill="none" xmlns="http://www.w3.org/2000/svg">
<rect width="60" height="60" rx="30" fill="white"/>
<path d="M38.8035 36.9465C39.0501 37.193 39.1886 37.5275 39.1886 37.8762C39.1886 38.2249 39.0501 38.5593 38.8035 38.8059C38.557 39.0524 38.2226 39.1909 37.8739 39.1909C37.5252 39.1909 37.1907 39.0524 36.9442 38.8059L30 31.8594L23.0535 38.8037C22.807 39.0502 22.4726 39.1888 22.1239 39.1888C21.7752 39.1888 21.4407 39.0502 21.1942 38.8037C20.9476 38.5571 20.8091 38.2227 20.8091 37.874C20.8091 37.5253 20.9476 37.1909 21.1942 36.9443L28.1406 30.0001L21.1964 23.0537C20.9498 22.8071 20.8113 22.4727 20.8113 22.124C20.8113 21.7753 20.9498 21.4409 21.1964 21.1943C21.4429 20.9477 21.7773 20.8092 22.126 20.8092C22.4747 20.8092 22.8092 20.9477 23.0557 21.1943L30 28.1407L36.9464 21.1932C37.1929 20.9466 37.5273 20.8081 37.876 20.8081C38.2247 20.8081 38.5592 20.9466 38.8057 21.1932C39.0523 21.4398 39.1908 21.7742 39.1908 22.1229C39.1908 22.4716 39.0523 22.806 38.8057 23.0526L31.8593 30.0001L38.8035 36.9465Z" fill="#373737"/>
</svg>
