<svg width="20" height="19" viewBox="0 0 20 19" fill="none" xmlns="http://www.w3.org/2000/svg">
<path d="M6.25 7.625H1.75C1.45163 7.625 1.16548 7.50647 0.954505 7.2955C0.743526 7.08452 0.625 6.79837 0.625 6.5V2C0.625 1.70163 0.743526 1.41548 0.954505 1.2045C1.16548 0.993526 1.45163 0.875 1.75 0.875C2.04837 0.875 2.33452 0.993526 2.5455 1.2045C2.75647 1.41548 2.875 1.70163 2.875 2V3.29938C4.43594 1.76188 6.83969 0.125 10 0.125C14.1681 0.125 16.69 2.59906 16.7959 2.70406C17.0045 2.91524 17.1212 3.20029 17.1205 3.49711C17.1199 3.79393 17.002 4.07846 16.7924 4.28871C16.5829 4.49897 16.2988 4.6179 16.002 4.61961C15.7052 4.62131 15.4197 4.50565 15.2078 4.29781C15.1666 4.25844 13.1875 2.375 10 2.375C7.28125 2.375 5.22438 4.0325 4 5.375H6.25C6.54837 5.375 6.83452 5.49353 7.0455 5.7045C7.25647 5.91548 7.375 6.20163 7.375 6.5C7.375 6.79837 7.25647 7.08452 7.0455 7.2955C6.83452 7.50647 6.54837 7.625 6.25 7.625ZM18.25 11.375H13.75C13.4516 11.375 13.1655 11.4935 12.9545 11.7045C12.7435 11.9155 12.625 12.2016 12.625 12.5C12.625 12.7984 12.7435 13.0845 12.9545 13.2955C13.1655 13.5065 13.4516 13.625 13.75 13.625H16C14.7812 14.9675 12.7188 16.625 10 16.625C6.8125 16.625 4.83344 14.7416 4.79219 14.7012C4.58027 14.4934 4.29481 14.3778 3.998 14.3795C3.70118 14.3812 3.41707 14.5001 3.20756 14.7104C2.99805 14.9206 2.88012 15.2051 2.87946 15.502C2.87881 15.7988 2.99548 16.0838 3.20406 16.295C3.31 16.4009 5.83188 18.875 10 18.875C13.1603 18.875 15.5641 17.2381 17.125 15.7006V17C17.125 17.2984 17.2435 17.5845 17.4545 17.7955C17.6655 18.0065 17.9516 18.125 18.25 18.125C18.5484 18.125 18.8345 18.0065 19.0455 17.7955C19.2565 17.5845 19.375 17.2984 19.375 17V12.5C19.375 12.2016 19.2565 11.9155 19.0455 11.7045C18.8345 11.4935 18.5484 11.375 18.25 11.375Z" fill="black"/>
</svg>
