<svg width="154" height="219" viewBox="0 0 154 219" fill="none" xmlns="http://www.w3.org/2000/svg">
<g filter="url(#filter0_d_143_1461)">
<path d="M106.25 107.625H101.75C101.452 107.625 101.165 107.506 100.955 107.295C100.744 107.085 100.625 106.798 100.625 106.5V102C100.625 101.702 100.744 101.415 100.955 101.205C101.165 100.994 101.452 100.875 101.75 100.875C102.048 100.875 102.335 100.994 102.545 101.205C102.756 101.415 102.875 101.702 102.875 102V103.299C104.436 101.762 106.84 100.125 110 100.125C114.168 100.125 116.69 102.599 116.796 102.704C117.005 102.915 117.121 103.2 117.121 103.497C117.12 103.794 117.002 104.078 116.792 104.289C116.583 104.499 116.299 104.618 116.002 104.62C115.705 104.621 115.42 104.506 115.208 104.298C115.167 104.258 113.188 102.375 110 102.375C107.281 102.375 105.224 104.033 104 105.375H106.25C106.548 105.375 106.835 105.494 107.045 105.705C107.256 105.915 107.375 106.202 107.375 106.5C107.375 106.798 107.256 107.085 107.045 107.295C106.835 107.506 106.548 107.625 106.25 107.625ZM118.25 111.375H113.75C113.452 111.375 113.165 111.494 112.955 111.705C112.744 111.915 112.625 112.202 112.625 112.5C112.625 112.798 112.744 113.085 112.955 113.295C113.165 113.506 113.452 113.625 113.75 113.625H116C114.781 114.967 112.719 116.625 110 116.625C106.812 116.625 104.833 114.742 104.792 114.701C104.58 114.493 104.295 114.378 103.998 114.379C103.701 114.381 103.417 114.5 103.208 114.71C102.998 114.921 102.88 115.205 102.879 115.502C102.879 115.799 102.995 116.084 103.204 116.295C103.31 116.401 105.832 118.875 110 118.875C113.16 118.875 115.564 117.238 117.125 115.701V117C117.125 117.298 117.244 117.585 117.455 117.795C117.665 118.006 117.952 118.125 118.25 118.125C118.548 118.125 118.835 118.006 119.045 117.795C119.256 117.585 119.375 117.298 119.375 117V112.5C119.375 112.202 119.256 111.915 119.045 111.705C118.835 111.494 118.548 111.375 118.25 111.375Z" fill="black"/>
</g>
<defs>
<filter id="filter0_d_143_1461" x="-2" y="-2.5" width="224" height="224" filterUnits="userSpaceOnUse" color-interpolation-filters="sRGB">
<feFlood flood-opacity="0" result="BackgroundImageFix"/>
<feColorMatrix in="SourceAlpha" type="matrix" values="0 0 0 0 0 0 0 0 0 0 0 0 0 0 0 0 0 0 127 0" result="hardAlpha"/>
<feOffset/>
<feGaussianBlur stdDeviation="50"/>
<feComposite in2="hardAlpha" operator="out"/>
<feColorMatrix type="matrix" values="0 0 0 0 0.0313726 0 0 0 0 0.0705882 0 0 0 0 0.341176 0 0 0 0.25 0"/>
<feBlend mode="normal" in2="BackgroundImageFix" result="effect1_dropShadow_143_1461"/>
<feBlend mode="normal" in="SourceGraphic" in2="effect1_dropShadow_143_1461" result="shape"/>
</filter>
</defs>
</svg>
