<svg width="60" height="60" viewBox="0 0 60 60" fill="none" xmlns="http://www.w3.org/2000/svg">
<rect width="60" height="60" rx="30" fill="white"/>
<path d="M21.1964 28.3036C20.9498 28.057 20.8113 27.7226 20.8113 27.3739C20.8113 27.0252 20.9498 26.6908 21.1964 26.4442C21.443 26.1977 21.7774 26.0591 22.1261 26.0591C22.4748 26.0591 22.8092 26.1977 23.0558 26.4442L28.6875 32.0781V19.5C28.6875 19.1519 28.8258 18.8181 29.0719 18.5719C29.3181 18.3258 29.6519 18.1875 30 18.1875C30.3481 18.1875 30.6819 18.3258 30.9281 18.5719C31.1742 18.8181 31.3125 19.1519 31.3125 19.5V32.0781L36.9464 26.4431C37.193 26.1966 37.5274 26.058 37.8761 26.058C38.2248 26.058 38.5592 26.1966 38.8058 26.4431C39.0523 26.6897 39.1909 27.0241 39.1909 27.3728C39.1909 27.7215 39.0523 28.0559 38.8058 28.3025L30.9308 36.1775C30.8088 36.2999 30.664 36.3969 30.5044 36.4632C30.3449 36.5294 30.1738 36.5635 30.0011 36.5635C29.8283 36.5635 29.6573 36.5294 29.4978 36.4632C29.3382 36.3969 29.1933 36.2999 29.0714 36.1775L21.1964 28.3036ZM39.625 38.3125H20.375C20.0269 38.3125 19.6931 38.4508 19.4469 38.6969C19.2008 38.9431 19.0625 39.2769 19.0625 39.625C19.0625 39.9731 19.2008 40.3069 19.4469 40.5531C19.6931 40.7992 20.0269 40.9375 20.375 40.9375H39.625C39.9731 40.9375 40.3069 40.7992 40.5531 40.5531C40.7992 40.3069 40.9375 39.9731 40.9375 39.625C40.9375 39.2769 40.7992 38.9431 40.5531 38.6969C40.3069 38.4508 39.9731 38.3125 39.625 38.3125Z" fill="#373737"/>
</svg>
