<svg width="50" height="50" viewBox="0 0 50 50" fill="none" xmlns="http://www.w3.org/2000/svg">
<rect width="50" height="50" rx="10" fill="white"/>
<path d="M38.125 9.25H17.125C16.4288 9.25 15.7611 9.52656 15.2688 10.0188C14.7766 10.5111 14.5 11.1788 14.5 11.875V14.5H11.875C11.1788 14.5 10.5111 14.7766 10.0188 15.2688C9.52656 15.7611 9.25 16.4288 9.25 17.125V38.125C9.25 38.8212 9.52656 39.4889 10.0188 39.9812C10.5111 40.4734 11.1788 40.75 11.875 40.75H32.875C33.5712 40.75 34.2389 40.4734 34.7312 39.9812C35.2234 39.4889 35.5 38.8212 35.5 38.125V35.5H38.125C38.8212 35.5 39.4889 35.2234 39.9812 34.7312C40.4734 34.2389 40.75 33.5712 40.75 32.875V11.875C40.75 11.1788 40.4734 10.5111 39.9812 10.0188C39.4889 9.52656 38.8212 9.25 38.125 9.25ZM17.125 11.875H38.125V23.2577L35.3852 20.5178C34.8929 20.0259 34.2255 19.7496 33.5296 19.7496C32.8337 19.7496 32.1663 20.0259 31.6741 20.5178L19.3185 32.875H17.125V11.875ZM32.875 38.125H11.875V17.125H14.5V32.875C14.5 33.5712 14.7766 34.2389 15.2688 34.7312C15.7611 35.2234 16.4288 35.5 17.125 35.5H32.875V38.125ZM38.125 32.875H23.0312L33.5312 22.375L38.125 26.9688V32.875ZM23.6875 22.375C24.4663 22.375 25.2275 22.1441 25.8751 21.7114C26.5226 21.2788 27.0273 20.6638 27.3253 19.9443C27.6233 19.2248 27.7013 18.4331 27.5493 17.6693C27.3974 16.9055 27.0224 16.2039 26.4717 15.6533C25.9211 15.1026 25.2195 14.7276 24.4557 14.5757C23.6919 14.4237 22.9002 14.5017 22.1807 14.7997C21.4612 15.0977 20.8462 15.6024 20.4136 16.2499C19.9809 16.8975 19.75 17.6587 19.75 18.4375C19.75 19.4818 20.1648 20.4833 20.9033 21.2217C21.6417 21.9602 22.6432 22.375 23.6875 22.375ZM23.6875 17.125C23.9471 17.125 24.2008 17.202 24.4167 17.3462C24.6325 17.4904 24.8008 17.6954 24.9001 17.9352C24.9994 18.1751 25.0254 18.439 24.9748 18.6936C24.9241 18.9482 24.7991 19.182 24.6156 19.3656C24.432 19.5491 24.1982 19.6741 23.9436 19.7248C23.689 19.7754 23.4251 19.7494 23.1852 19.6501C22.9454 19.5508 22.7404 19.3825 22.5962 19.1667C22.452 18.9508 22.375 18.6971 22.375 18.4375C22.375 18.0894 22.5133 17.7556 22.7594 17.5094C23.0056 17.2633 23.3394 17.125 23.6875 17.125Z" fill="#4F4F4F"/>
</svg>
