<svg width="30" height="30" viewBox="0 0 30 30" fill="none" xmlns="http://www.w3.org/2000/svg">
<g clip-path="url(#clip0_346_1216)">
<path d="M23.75 30H22.5C22.1685 30 21.8505 29.8683 21.6161 29.6339C21.3817 29.3995 21.25 29.0815 21.25 28.75C21.25 28.4185 21.3817 28.1005 21.6161 27.8661C21.8505 27.6317 22.1685 27.5 22.5 27.5H23.75C24.7446 27.5 25.6984 27.1049 26.4017 26.4017C27.1049 25.6984 27.5 24.7446 27.5 23.75V22.5C27.5 22.1685 27.6317 21.8505 27.8661 21.6161C28.1005 21.3817 28.4185 21.25 28.75 21.25C29.0815 21.25 29.3995 21.3817 29.6339 21.6161C29.8683 21.8505 30 22.1685 30 22.5V23.75C29.998 25.407 29.3389 26.9956 28.1672 28.1672C26.9956 29.3389 25.407 29.998 23.75 30V30ZM30 7.5V6.25C29.998 4.59301 29.3389 3.00445 28.1672 1.83277C26.9956 0.661102 25.407 0.00198482 23.75 0L22.5 0C22.1685 0 21.8505 0.131696 21.6161 0.366117C21.3817 0.600537 21.25 0.918479 21.25 1.25C21.25 1.58152 21.3817 1.89946 21.6161 2.13388C21.8505 2.3683 22.1685 2.5 22.5 2.5H23.75C24.7446 2.5 25.6984 2.89509 26.4017 3.59835C27.1049 4.30161 27.5 5.25544 27.5 6.25V7.5C27.5 7.83152 27.6317 8.14946 27.8661 8.38388C28.1005 8.6183 28.4185 8.75 28.75 8.75C29.0815 8.75 29.3995 8.6183 29.6339 8.38388C29.8683 8.14946 30 7.83152 30 7.5ZM8.75 28.75C8.75 28.4185 8.6183 28.1005 8.38388 27.8661C8.14946 27.6317 7.83152 27.5 7.5 27.5H6.25C5.25544 27.5 4.30161 27.1049 3.59835 26.4017C2.89509 25.6984 2.5 24.7446 2.5 23.75V22.5C2.5 22.1685 2.3683 21.8505 2.13388 21.6161C1.89946 21.3817 1.58152 21.25 1.25 21.25C0.918479 21.25 0.600537 21.3817 0.366117 21.6161C0.131696 21.8505 0 22.1685 0 22.5L0 23.75C0.00198482 25.407 0.661102 26.9956 1.83277 28.1672C3.00445 29.3389 4.59301 29.998 6.25 30H7.5C7.83152 30 8.14946 29.8683 8.38388 29.6339C8.6183 29.3995 8.75 29.0815 8.75 28.75ZM2.5 7.5V6.25C2.5 5.25544 2.89509 4.30161 3.59835 3.59835C4.30161 2.89509 5.25544 2.5 6.25 2.5H7.5C7.83152 2.5 8.14946 2.3683 8.38388 2.13388C8.6183 1.89946 8.75 1.58152 8.75 1.25C8.75 0.918479 8.6183 0.600537 8.38388 0.366117C8.14946 0.131696 7.83152 0 7.5 0L6.25 0C4.59301 0.00198482 3.00445 0.661102 1.83277 1.83277C0.661102 3.00445 0.00198482 4.59301 0 6.25L0 7.5C0 7.83152 0.131696 8.14946 0.366117 8.38388C0.600537 8.6183 0.918479 8.75 1.25 8.75C1.58152 8.75 1.89946 8.6183 2.13388 8.38388C2.3683 8.14946 2.5 7.83152 2.5 7.5ZM20 15C20 14.0111 19.7068 13.0444 19.1573 12.2221C18.6079 11.3999 17.827 10.759 16.9134 10.3806C15.9998 10.0022 14.9945 9.90315 14.0245 10.0961C13.0546 10.289 12.1637 10.7652 11.4645 11.4645C10.7652 12.1637 10.289 13.0546 10.0961 14.0245C9.90315 14.9945 10.0022 15.9998 10.3806 16.9134C10.759 17.827 11.3999 18.6079 12.2221 19.1573C13.0444 19.7068 14.0111 20 15 20C16.3261 20 17.5979 19.4732 18.5355 18.5355C19.4732 17.5979 20 16.3261 20 15ZM17.5 15C17.5 15.4945 17.3534 15.9778 17.0787 16.3889C16.804 16.8 16.4135 17.1205 15.9567 17.3097C15.4999 17.4989 14.9972 17.5484 14.5123 17.452C14.0273 17.3555 13.5819 17.1174 13.2322 16.7678C12.8826 16.4181 12.6445 15.9727 12.548 15.4877C12.4516 15.0028 12.5011 14.5001 12.6903 14.0433C12.8795 13.5865 13.2 13.196 13.6111 12.9213C14.0222 12.6466 14.5055 12.5 15 12.5C15.663 12.5 16.2989 12.7634 16.7678 13.2322C17.2366 13.7011 17.5 14.337 17.5 15Z" fill="#8E8E8E"/>
</g>
<defs>
<clipPath id="clip0_346_1216">
<rect width="30" height="30" fill="white"/>
</clipPath>
</defs>
</svg>
