<svg width="200" height="200" viewBox="0 0 200 200" fill="none" xmlns="http://www.w3.org/2000/svg">
<rect width="200" height="200" fill="#725EEA"/>
<g filter="url(#filter0_i_486_1215)">
<path d="M157.75 82.4688C157.75 118.562 104.233 147.778 101.954 148.984C101.354 149.308 100.682 149.477 100 149.477C99.3179 149.477 98.6465 149.308 98.0458 148.984C95.7667 147.778 42.25 118.562 42.25 82.4688C42.2596 73.993 45.6307 65.8672 51.624 59.874C57.6172 53.8807 65.743 50.5096 74.2188 50.5C84.8664 50.5 94.1889 55.0787 100 62.8183C105.811 55.0787 115.134 50.5 125.781 50.5C134.257 50.5096 142.383 53.8807 148.376 59.874C154.369 65.8672 157.74 73.993 157.75 82.4688Z" fill="white"/>
</g>
<defs>
<filter id="filter0_i_486_1215" x="34" y="34" width="147" height="147" filterUnits="userSpaceOnUse" color-interpolation-filters="sRGB">
<feFlood flood-opacity="0" result="BackgroundImageFix"/>
<feBlend mode="normal" in="SourceGraphic" in2="BackgroundImageFix" result="shape"/>
<feColorMatrix in="SourceAlpha" type="matrix" values="0 0 0 0 0 0 0 0 0 0 0 0 0 0 0 0 0 0 127 0" result="hardAlpha"/>
<feOffset dx="15" dy="15"/>
<feGaussianBlur stdDeviation="12.5"/>
<feComposite in2="hardAlpha" operator="arithmetic" k2="-1" k3="1"/>
<feColorMatrix type="matrix" values="0 0 0 0 0.284649 0 0 0 0 0.182878 0 0 0 0 0.89528 0 0 0 0.15 0"/>
<feBlend mode="normal" in2="shape" result="effect1_innerShadow_486_1215"/>
</filter>
</defs>
</svg>
