<svg width="30" height="30" viewBox="0 0 30 30" fill="none" xmlns="http://www.w3.org/2000/svg">
<g clip-path="url(#clip0_346_1212)">
<path d="M23.125 30H21.875C21.3777 30 20.9008 29.8025 20.5492 29.4508C20.1975 29.0992 20 28.6223 20 28.125C20 27.6277 20.1975 27.1508 20.5492 26.7992C20.9008 26.4475 21.3777 26.25 21.875 26.25H23.125C23.9538 26.25 24.7487 25.9208 25.3347 25.3347C25.9208 24.7487 26.25 23.9538 26.25 23.125V21.875C26.25 21.3777 26.4475 20.9008 26.7992 20.5492C27.1508 20.1975 27.6277 20 28.125 20C28.6223 20 29.0992 20.1975 29.4508 20.5492C29.8025 20.9008 30 21.3777 30 21.875V23.125C29.998 24.9478 29.273 26.6953 27.9842 27.9842C26.6953 29.273 24.9478 29.998 23.125 30ZM30 8.125V6.875C29.998 5.05225 29.273 3.30472 27.9842 2.01583C26.6953 0.726951 24.9478 0.00198521 23.125 0L21.875 0C21.3777 0 20.9008 0.197544 20.5492 0.549175C20.1975 0.900805 20 1.37772 20 1.875C20 2.37228 20.1975 2.84919 20.5492 3.20083C20.9008 3.55246 21.3777 3.75 21.875 3.75H23.125C23.9538 3.75 24.7487 4.07924 25.3347 4.66529C25.9208 5.25134 26.25 6.0462 26.25 6.875V8.125C26.25 8.62228 26.4475 9.09919 26.7992 9.45083C27.1508 9.80246 27.6277 10 28.125 10C28.6223 10 29.0992 9.80246 29.4508 9.45083C29.8025 9.09919 30 8.62228 30 8.125ZM10 28.125C10 27.6277 9.80246 27.1508 9.45083 26.7992C9.09919 26.4475 8.62228 26.25 8.125 26.25H6.875C6.0462 26.25 5.25134 25.9208 4.66529 25.3347C4.07924 24.7487 3.75 23.9538 3.75 23.125V21.875C3.75 21.3777 3.55246 20.9008 3.20083 20.5492C2.84919 20.1975 2.37228 20 1.875 20C1.37772 20 0.900805 20.1975 0.549175 20.5492C0.197544 20.9008 0 21.3777 0 21.875L0 23.125C0.00198521 24.9478 0.726951 26.6953 2.01583 27.9842C3.30472 29.273 5.05225 29.998 6.875 30H8.125C8.62228 30 9.09919 29.8025 9.45083 29.4508C9.80246 29.0992 10 28.6223 10 28.125ZM3.75 8.125V6.875C3.75 6.0462 4.07924 5.25134 4.66529 4.66529C5.25134 4.07924 6.0462 3.75 6.875 3.75H8.125C8.62228 3.75 9.09919 3.55246 9.45083 3.20083C9.80246 2.84919 10 2.37228 10 1.875C10 1.37772 9.80246 0.900805 9.45083 0.549175C9.09919 0.197544 8.62228 0 8.125 0L6.875 0C5.05225 0.00198521 3.30472 0.726951 2.01583 2.01583C0.726951 3.30472 0.00198521 5.05225 0 6.875L0 8.125C0 8.62228 0.197544 9.09919 0.549175 9.45083C0.900805 9.80246 1.37772 10 1.875 10C2.37228 10 2.84919 9.80246 3.20083 9.45083C3.55246 9.09919 3.75 8.62228 3.75 8.125ZM20 15C20 14.0111 19.7068 13.0444 19.1573 12.2221C18.6079 11.3999 17.827 10.759 16.9134 10.3806C15.9998 10.0022 14.9945 9.90315 14.0245 10.0961C13.0546 10.289 12.1637 10.7652 11.4645 11.4645C10.7652 12.1637 10.289 13.0546 10.0961 14.0245C9.90315 14.9945 10.0022 15.9998 10.3806 16.9134C10.759 17.827 11.3999 18.6079 12.2221 19.1573C13.0444 19.7068 14.0111 20 15 20C16.3261 20 17.5979 19.4732 18.5355 18.5355C19.4732 17.5979 20 16.3261 20 15Z" fill="#725EEA"/>
</g>
<defs>
<clipPath id="clip0_346_1212">
<rect width="30" height="30" fill="white"/>
</clipPath>
</defs>
</svg>
