<svg width="375" height="375" viewBox="0 0 375 375" fill="none" xmlns="http://www.w3.org/2000/svg">
<path fill-rule="evenodd" clip-rule="evenodd" d="M150.337 285.338C202.714 300.067 228.2 243.543 273.077 247.844C297.643 250.198 346.61 262.129 346.5 175.216C346.227 119.106 294.508 105.055 241.176 133.83C225.482 139.968 213.092 138.066 199.639 131.968C186.187 125.87 168.885 98.6465 136.277 93.0459C38.1474 76.1922 -45.815 230.177 150.337 285.338Z" fill="#DFDBFA"/>
<path fill-rule="evenodd" clip-rule="evenodd" d="M274.805 144.173C275.787 143.695 277.55 144.621 276.528 146.113C274.263 149.415 283.021 156.01 280.21 150.198C279.909 149.577 278.368 145.279 280.549 147.498C282.73 149.716 285.771 159.521 283.804 162.899C282.078 165.864 277.51 167.274 271.274 167.441L270.994 167.447L270.861 167.455C267.185 167.626 264.397 165.351 262.598 160.921L262.512 160.705C260.69 156.067 261.19 152.349 264.135 149.843C264.189 149.797 264.246 149.757 264.306 149.721L264.399 149.671L274.805 144.173Z" fill="white"/>
<path fill-rule="evenodd" clip-rule="evenodd" d="M76.2129 57.3823C75.7841 56.7738 75.0893 56.4234 74.3472 56.5143C73.5873 56.6065 72.9519 57.1349 72.7207 57.8639L72.659 58.0589C72.6122 58.2028 72.5565 58.3676 72.4912 58.553C72.3048 59.0821 72.0787 59.6695 71.8117 60.3012C71.0526 62.097 70.1182 63.8894 69.0028 65.5568C66.5963 69.1544 63.6966 71.6588 60.2976 72.6234C59.7663 72.7742 59.4578 73.3271 59.6086 73.8584C59.6851 74.1281 64.6493 76.6091 69.7171 75.9836C74.6327 75.3769 79.6569 71.6711 79.6974 71.4189L79.7594 70.8938L79.7768 70.7178C80.1289 66.8997 79.4606 62.5868 76.8895 58.4088C76.676 58.0617 76.4505 57.7195 76.2129 57.3823Z" fill="#E7EAEE"/>
<path fill-rule="evenodd" clip-rule="evenodd" d="M86.4419 58.493L86.4158 58.6949C86.0597 61.2798 85.0619 64.8795 83.2572 67.5948C81.0354 70.9378 77.8998 73.4944 74.7489 75.1421C70.2032 77.5187 65.2553 77.9539 60.3835 74.8662L60.1686 74.7279C57.6084 73.0534 55.6657 72.2471 52.9999 72.9125C50.3342 73.5778 49.0395 75.5193 47.8888 77.3206L47.836 77.3968C47.6516 77.6432 47.3818 77.8139 47.0776 77.874L42.0234 78.6745L43.864 80.961C44.418 81.6541 44.8117 82.1537 45.0453 82.46L47.0683 85.1251C53.0976 93.0326 59.586 100.583 72.239 97.9691L72.6678 97.8771C76.0201 97.132 78.8306 99.1333 82.3565 102.083L83.1098 102.717C84.0426 103.507 86.8623 105.992 88.0164 107.189L88.3936 107.585L88.7416 107.959C88.814 108.038 88.8832 108.114 88.9487 108.187L89.3084 108.592L89.5293 108.332C91.9161 105.458 93.4109 101.082 94.1848 97.4719C94.4772 96.1078 94.645 94.8017 94.7148 93.5967L94.7234 93.4398C94.7415 93.0875 94.7497 92.78 94.7509 92.5231V92.3325L94.3904 92.4381C90.2173 93.6217 85.522 93.7393 80.9405 93.2107C79.8338 93.0831 91.9745 83.25 89.4824 70.5155C88.9145 67.6131 88.554 63.7326 87.5621 61.0987C87.2492 60.268 86.925 59.5084 86.6037 58.8291L86.4419 58.493Z" fill="white"/>
<path fill-rule="evenodd" clip-rule="evenodd" d="M275.332 145.746L264.945 150.795C262.455 152.914 262.032 156.064 263.675 160.248C264.252 161.715 265.694 165.212 265.694 163.838C265.694 163.409 275.332 157.109 277.182 157.726C278.892 158.295 275.82 153.158 274.959 150.795L275.332 145.616L275.618 145.101" fill="#E7EAEE"/>
<path fill-rule="evenodd" clip-rule="evenodd" d="M261.474 149.535C262.164 149.535 258.252 151.375 258.454 154.768C258.656 158.161 261.307 164.414 260.662 164.66C260.017 164.907 258.795 163.084 258.548 162.439C257.015 158.426 256.725 156.789 256.78 154.449C256.851 151.385 258.462 149.535 261.474 149.535Z" fill="#E7EAEE"/>
<ellipse cx="278.881" cy="152.896" rx="2.70008" ry="6.0996" fill="#E7EAEE"/>
<path fill-rule="evenodd" clip-rule="evenodd" d="M90.2832 217.208C90.2832 206.624 91.459 202.023 104.086 196.247C129.966 185.786 129.966 185.383 179.546 166.214C192.658 161.171 220.301 173.252 232.322 168.189C240.335 164.813 247.829 162.307 254.45 158.96C255.091 163.146 259.235 170.234 260.695 171.453C252.942 173.08 245.442 175.596 238.196 179.001C222.532 186.362 231.814 184.356 207.003 207.754C204.9 209.737 197.173 214.258 186.001 218.967C186.001 218.967 163.501 215.946 154.477 212.192C145.293 208.372 131.377 196.247 131.377 196.247C131.377 196.247 115.147 206.835 105.816 211.594C101.449 213.822 90.2832 217.208 90.2832 217.208Z" fill="white"/>
<path fill-rule="evenodd" clip-rule="evenodd" d="M90.2836 211.708C90.2836 209.224 90.0212 207.49 90.2836 205.572C91.1393 199.32 94.4924 196.121 104.156 191.701C130.036 181.24 129.967 179.883 179.547 160.714C192.659 155.671 220.301 167.752 232.322 162.689C240.336 159.313 247.829 156.807 254.45 153.46C254.469 153.58 253.78 159.301 253.78 159.301C253.78 159.301 237.436 167.931 226.624 169.762C215.137 171.706 199.359 162.689 183.604 167.124C159.612 173.878 104.323 195.106 97.7827 200.425C92.6435 204.605 90.2836 211.708 90.2836 211.708Z" fill="#E7EAEE"/>
<path fill-rule="evenodd" clip-rule="evenodd" d="M76.2129 57.3823C75.7841 56.7738 75.0893 56.4234 74.3472 56.5143C73.5873 56.6065 72.9519 57.1349 72.7207 57.8639L72.659 58.0589C72.6122 58.2028 72.5565 58.3676 72.4912 58.553C72.3048 59.0821 72.0787 59.6695 71.8117 60.3012C71.0526 62.097 70.1182 63.8894 69.0028 65.5568C66.5963 69.1544 63.6966 71.6588 60.2976 72.6234C59.7663 72.7742 59.4578 73.3271 59.6086 73.8584C59.7593 74.3897 68.0179 70.6263 70.6652 66.6688C71.8568 64.8873 72.8485 62.985 73.6539 61.0799C73.8969 60.5051 74.1083 59.9637 74.2895 59.464L74.3775 59.2177C74.4485 59.0164 74.5094 58.836 74.5612 58.6766C74.5742 58.5629 74.5864 58.5249 74.5976 58.5625C80.3265 62.4817 78.0744 72.2083 78.6247 72.2555C79.1499 72.3006 79.6151 71.9312 79.6974 71.4189L79.7594 70.8938L79.7768 70.7178V70.7178C80.1289 66.8997 79.4606 62.5868 76.8895 58.4088C76.676 58.0617 76.4505 57.7195 76.2129 57.3823Z" fill="#E7EAEE"/>
<path fill-rule="evenodd" clip-rule="evenodd" d="M88.1413 57.3529L88.2676 57.5782L88.4216 57.8675C88.5143 58.0455 88.6185 58.252 88.7319 58.4853C89.1248 59.2937 89.5217 60.2086 89.9017 61.2176C90.9713 64.0577 91.7192 67.1229 91.9745 70.3162C92.321 74.6497 91.6954 78.7394 90.1112 82.46L89.9756 82.7723C88.6885 85.6787 86.8133 88.3417 84.3793 90.7309L84.138 90.9645L84.3432 90.9744C87.8484 91.1217 91.3148 90.8079 94.362 89.8363C95.0155 89.628 95.7279 89.7355 96.291 90.127C96.8529 90.5179 97.2019 91.1468 97.2371 91.8303L97.2451 92.0425L97.25 92.3228V92.3228V92.4307C97.25 92.822 97.2385 93.2606 97.2107 93.7413C97.1338 95.0688 96.9498 96.5009 96.6293 97.9959C95.724 102.219 93.9139 106.175 90.9553 109.508C90.5627 109.95 90.0103 110.215 89.4231 110.247L89.2873 110.25C88.6603 110.238 88.0877 109.979 87.6807 109.536L87.3827 109.19L87.2365 109.024V109.024L86.9259 108.679L86.5858 108.312C86.4676 108.186 86.3446 108.057 86.2171 107.925C85.1308 106.798 83.932 105.682 82.6587 104.654C79.1293 101.806 75.725 100.198 72.8177 100.373C68.0618 100.658 64.1233 100.436 60.4695 99.411C55.7458 98.0857 52.0366 95.4852 49.582 91.3455L49.4444 91.1095C48.1736 88.8933 46.2967 86.3403 44.0827 83.6831C43.3985 82.8619 42.7237 82.081 42.0804 81.3588L41.8067 81.053C41.3685 80.5655 41.0095 80.177 40.859 80.0189C40.3034 79.4334 40.1103 78.5934 40.353 77.8252L40.3887 77.7214C40.6553 77.0036 41.2755 76.4717 42.0314 76.3226L46.0845 75.5215L46.1317 75.4532C47.582 73.3918 49.6527 71.6457 52.4033 70.9424C55.2724 70.2087 58.2915 70.8466 61.3319 72.7758L61.5441 72.9125C65.6505 75.5982 69.7207 75.45 73.5905 73.4267C76.3547 71.9813 78.9893 69.527 80.9856 66.5232C82.8418 63.7305 83.9451 60.745 84.0238 58.3886C84.0566 57.4038 84.7359 56.5583 85.6911 56.3172C86.6472 56.0755 87.647 56.4989 88.1413 57.3529ZM86.442 58.493L86.4159 58.6949C86.0598 61.2798 85.0619 64.8795 83.2573 67.5948C81.0354 70.9378 77.8999 73.4945 74.7489 75.1421C70.2033 77.5188 65.2554 77.9539 60.3836 74.8662L60.1687 74.7279C57.6085 73.0534 55.6657 72.2471 53 72.9125C50.3343 73.5778 49.0396 75.5193 47.8888 77.3206L47.8361 77.3968C47.6516 77.6432 47.3818 77.8139 47.0777 77.874L42.0235 78.6745L43.8641 80.961C44.418 81.6541 44.8118 82.1538 45.0454 82.46L47.0684 85.1251C53.0976 93.0326 59.5861 100.583 72.239 97.9691L72.6679 97.8771C76.0201 97.132 78.8307 99.1333 82.3566 102.083L83.1099 102.717C84.0426 103.507 86.8624 105.993 88.0165 107.189L88.3937 107.585L88.7416 107.959C88.8141 108.038 88.8832 108.114 88.9488 108.187L89.3085 108.592L89.5294 108.332C91.9162 105.458 93.411 101.082 94.1849 97.4719C94.4773 96.1078 94.6451 94.8017 94.7149 93.5967L94.7235 93.4398C94.7416 93.0875 94.7497 92.78 94.751 92.5231V92.3325L94.3905 92.4382C90.2173 93.6217 85.5221 93.7393 80.9406 93.2107C79.8339 93.0831 91.9745 83.25 89.4825 70.5155C88.9145 67.6131 88.5541 63.7326 87.5621 61.0987C87.2493 60.268 86.925 59.5084 86.6037 58.8291L86.442 58.493Z" fill="#E7EAEE"/>
<path fill-rule="evenodd" clip-rule="evenodd" d="M54.75 81C55.715 81 56.5 80.215 56.5 79.25C56.5 78.285 55.715 77.5 54.75 77.5C53.785 77.5 53 78.285 53 79.25C53 80.2149 53.785 81 54.75 81Z" fill="#7F6DF8"/>
<ellipse cx="56.25" cy="85.75" rx="2.75" ry="2.25" fill="#FFB61D"/>
<ellipse cx="56.25" cy="85.75" rx="2.75" ry="2.25" fill="#FFB61D"/>
<path fill-rule="evenodd" clip-rule="evenodd" d="M88.1413 57.3529L88.2675 57.5782L88.4215 57.8675C88.5143 58.0455 88.6184 58.252 88.7318 58.4853C89.1248 59.2937 89.5217 60.2086 89.9017 61.2176C90.9713 64.0577 91.7192 67.1229 91.9745 70.3162C92.3209 74.6497 91.6954 78.7394 90.1112 82.46L89.9755 82.7723C88.6884 85.6787 86.8133 88.3417 84.3792 90.7309L84.1379 90.9645L84.3431 90.9744C87.8483 91.1217 91.3147 90.8079 94.362 89.8363C95.0154 89.628 95.7279 89.7355 96.2909 90.127C96.8528 90.5179 97.2018 91.1468 97.237 91.8303L97.245 92.0425L97.2499 92.3228V92.4307C97.2499 92.822 97.2385 93.2606 97.2106 93.7413C97.1337 95.0688 96.9497 96.5009 96.6293 97.9959C95.7239 102.219 93.9138 106.175 90.9553 109.508C90.5627 109.95 90.0102 110.215 89.423 110.247L89.2873 110.25C88.6602 110.238 88.0876 109.979 87.6806 109.536L87.3826 109.19L87.2365 109.024L86.9258 108.679L86.5857 108.312C86.4675 108.186 86.3446 108.057 86.2171 107.925C85.1307 106.798 83.9319 105.682 82.6586 104.654C79.1292 101.806 75.725 100.198 72.8176 100.373C68.0617 100.658 64.1233 100.436 60.4694 99.411C55.7457 98.0857 52.0365 95.4852 49.5819 91.3455L49.4443 91.1095C48.1735 88.8933 46.2966 86.3403 44.0827 83.6831C43.3985 82.8619 42.7236 82.081 42.0804 81.3588L41.8067 81.053C41.3685 80.5655 41.0094 80.177 40.8589 80.0189C40.3033 79.4334 40.1102 78.5934 40.353 77.8252L40.3886 77.7214C40.6553 77.0036 41.2755 76.4717 42.0313 76.3226L46.0844 75.5215L46.1317 75.4532C47.5819 73.3918 49.6526 71.6457 52.4032 70.9424C55.1107 70.25 57.9519 70.7791 60.8185 72.4622C63.9937 71.398 66.72 68.9692 69.0026 65.5568C70.118 63.8894 71.0524 62.097 71.8115 60.3012C72.0785 59.6695 72.3045 59.0821 72.491 58.553C72.5563 58.3676 72.612 58.2028 72.6588 58.0589L72.7205 57.8639C72.9517 57.1349 73.5871 56.6065 74.347 56.5143C75.0891 56.4234 75.7839 56.7738 76.2127 57.3823C76.4503 57.7195 76.6758 58.0617 76.8893 58.4088C78.8851 61.6519 79.7343 64.9763 79.8498 68.0875C80.2471 67.5856 80.6266 67.0633 80.9856 66.5232C82.8417 63.7305 83.945 60.745 84.0237 58.3886C84.0565 57.4038 84.7358 56.5583 85.6911 56.3172C86.6472 56.0755 87.647 56.4989 88.1413 57.3529ZM73.5905 73.4267C69.8315 75.392 65.8834 75.5881 61.8968 73.1363C64.581 71.8953 68.8877 69.3258 70.6649 66.6688C71.8566 64.8873 72.8483 62.985 73.6537 61.0799C73.8966 60.5051 74.1081 59.9636 74.2893 59.464L74.3773 59.2177C74.4482 59.0164 74.5092 58.836 74.561 58.6766C74.574 58.5629 74.5862 58.5249 74.5974 58.5625C78.4055 61.1677 78.6872 66.3388 78.6096 69.5274C77.0789 71.1607 75.3613 72.5007 73.5905 73.4267ZM74.7489 75.1421C76.2743 74.3444 77.7961 73.3338 79.2123 72.124C79.3213 72.0606 79.4175 71.9771 79.4957 71.878C80.8954 70.6433 82.1831 69.2109 83.2572 67.5948C85.0619 64.8795 86.0597 61.2798 86.4158 58.6949L86.4419 58.493L86.6037 58.8291C86.925 59.5084 87.2492 60.268 87.5621 61.0987C88.2524 62.9317 88.6369 65.3684 88.9983 67.6591L88.9983 67.6591L88.9983 67.6592C89.1562 68.6601 89.3097 69.633 89.4824 70.5155C91.3925 80.2759 84.7065 88.3319 81.9776 91.6199C81.1461 92.6217 80.6821 93.1809 80.9405 93.2107C85.522 93.7393 90.2173 93.6217 94.3904 92.4382L94.7509 92.3325V92.5231C94.7497 92.78 94.7415 93.0875 94.7234 93.4398L94.7148 93.5967C94.645 94.8018 94.4772 96.1078 94.1848 97.4719C93.4109 101.082 91.9161 105.458 89.5293 108.332L89.3084 108.592L88.9487 108.187C88.9072 108.141 88.8642 108.093 88.8199 108.045L88.7416 107.959L88.3936 107.585L88.0164 107.189C86.8623 105.993 84.0425 103.507 83.1098 102.717L82.3565 102.083C78.8306 99.1333 76.0201 97.132 72.6678 97.8771L72.239 97.9691C59.586 100.583 53.0976 93.0327 47.0683 85.1251L45.0453 82.46C44.8117 82.1538 44.418 81.6541 43.864 80.961L42.0234 78.6745L47.0776 77.874C47.3818 77.8139 47.6516 77.6432 47.836 77.3968L47.8888 77.3206C49.0395 75.5193 50.3342 73.5778 52.9999 72.9125C55.6657 72.2471 57.6084 73.0534 60.1686 74.7279L60.3835 74.8662C65.2553 77.9539 70.2032 77.5188 74.7489 75.1421ZM274.804 144.173C275.787 143.695 277.55 144.621 276.527 146.113C274.979 148.37 276.699 153.612 277.747 156.805L277.747 156.805L277.747 156.805L277.747 156.806L277.747 156.806C278.232 158.282 278.572 159.321 278.379 159.422C277.767 159.741 277.012 159.505 276.692 158.893C274.96 155.58 273.966 152.949 273.718 150.949C273.595 149.954 273.568 148.991 273.637 148.062L273.646 147.955L265.641 151.846L265.54 151.939C263.733 153.635 262.938 155.602 264.261 159.088L264.339 159.291C265.774 162.946 268.204 165.567 270.733 165.458L270.93 165.448C276.549 165.335 279.906 163.645 281.105 161.586C282.612 158.998 283.021 156.01 280.21 150.198C279.909 149.577 278.367 145.279 280.549 147.498C282.73 149.716 285.771 159.521 283.804 162.899C282.162 165.719 277.949 167.133 272.174 167.407C272.208 167.554 272.215 167.71 272.192 167.868C271.645 171.58 269.951 173.915 267.117 174.591C264.951 175.108 262.622 174.423 260.489 172.774C252.996 174.384 245.743 176.836 238.728 180.132L237.689 180.624C234.11 182.334 232.058 183.48 230.559 184.594C229.68 185.247 228.954 185.916 228.174 186.777L228.048 186.921C227.669 187.36 226.844 188.368 225.905 189.514L225.904 189.516L225.902 189.518L225.902 189.518L225.901 189.519L225.898 189.523L225.897 189.525C224.648 191.051 223.199 192.82 222.334 193.821L221.916 194.302C218.396 198.336 213.959 202.913 207.86 208.664L207.69 208.82C205.403 210.864 199.327 214.318 191.75 217.801C212.661 217.058 227.739 209.077 237.129 193.844C237.542 193.174 238.465 193.048 239.042 193.583C255.189 208.537 273.898 215.457 295.24 214.377C316.64 213.293 332.344 207.731 342.4 197.745C342.89 197.259 343.682 197.262 344.168 197.752C344.654 198.241 344.652 199.033 344.162 199.519C333.612 209.995 311.215 217.855 289.251 218.967C267.89 220.049 255.145 211.248 238.848 196.782L238.45 196.426L238.307 196.645C227.986 212.286 205.563 223.695 183.185 223.856L182.484 223.859C159.595 223.859 146.394 212.776 130.952 197.628L130.832 197.509L130.777 197.556L130.205 198.038L129.469 198.657L129.428 198.691C114.959 210.868 104.162 219.954 87.9212 222.275L87.4032 222.347C69.0913 226.052 41.3193 216.183 37.0515 211.346C33.1411 206.914 37.7022 209.669 38.9544 210.425L38.9545 210.425C39.0688 210.494 39.1556 210.547 39.2058 210.575C51.3257 217.514 65.2997 220.157 82.0653 217.87C84.3792 217.554 86.6784 217.137 88.9628 216.617L88.9364 216.37C88.2044 209.418 88.2001 206.379 89.2549 202.891C90.6897 198.147 94.173 194.542 100.439 191.676L102.164 190.913C109.904 187.502 116.051 184.941 122.427 182.452L122.894 182.271C123.609 181.992 124.334 181.712 125.073 181.429L125.798 181.152C126.059 181.06 129.464 179.71 134.642 177.657L134.644 177.656L134.65 177.654L134.659 177.651L134.661 177.65L134.668 177.647L134.67 177.646L134.671 177.646C146.648 172.898 168.074 164.404 182.051 159C185.075 157.837 188.737 157.45 193.228 157.682L193.614 157.703C196.979 157.901 200.288 158.358 205.713 159.296L210.479 160.131C215.801 161.053 218.38 161.416 221.391 161.63C222.338 161.698 223.237 161.781 224.092 161.861L224.092 161.861C227.258 162.155 229.806 162.392 231.836 161.537C233.642 160.776 235.412 160.042 237.147 159.322L237.147 159.322L237.148 159.322L237.149 159.322C242.822 156.969 248.113 154.773 253.024 152.332C253.361 150.148 254.221 148.536 255.57 147.474C257.65 145.836 260.595 145.808 263.148 146.801C263.792 147.052 264.111 147.776 263.86 148.42C263.779 148.628 263.259 148.532 262.523 148.396C260.984 148.112 258.502 147.655 257.117 149.438C255.576 151.422 255.064 154.462 256.428 160.447C257.417 164.784 263.829 172.159 266.537 172.159C269.557 172.159 270.263 169.228 270.664 167.565L270.689 167.461C267.098 167.554 264.369 165.282 262.598 160.921L262.512 160.705C260.69 156.067 261.19 152.349 264.135 149.843C264.189 149.797 264.246 149.757 264.306 149.721L264.399 149.671L274.804 144.173ZM258.183 170.514C258.057 170.361 257.931 170.204 257.808 170.044C257.761 169.994 257.716 169.943 257.677 169.896C257.563 169.758 257.446 169.618 257.327 169.474C256.358 168.311 255.236 166.963 254.357 165.018L254.23 164.735C252.819 161.576 252.651 158.028 252.738 155.103L252.751 154.763L252.676 154.801C246.851 157.684 240.514 160.576 233.666 163.478L232.807 163.841C229.875 165.076 226.213 165.948 221.572 165.648L221.213 165.624C218.043 165.398 215.376 165.019 209.785 164.048L205.61 163.316C193.842 161.279 187.953 160.961 183.1 162.775C183.1 162.775 110.734 189.998 101.466 193.955C95.8289 196.533 93.9165 198.96 91.5854 202.891C90.3797 204.924 90.5016 210.534 90.5863 214.43C90.6005 215.083 90.6137 215.689 90.6193 216.221C104.303 212.799 117.456 205.684 130.087 194.863C130.585 194.436 131.328 194.467 131.789 194.933C132.811 195.966 133.85 196.964 134.906 197.928L187.018 176.156C187.161 176.096 187.309 176.065 187.455 176.06C187.847 175.874 188.27 175.721 188.725 175.6C193.269 174.392 196.898 176.358 199.405 181.196L203.947 177.882C204.617 177.394 205.568 177.681 205.856 178.458C210.001 189.661 208.793 197.337 201.968 201.041C195.085 204.776 189.099 201.696 184.432 192.36C184.195 191.887 184.288 191.339 184.615 190.971C183.503 186.451 183.297 182.85 184.053 180.242L138.396 200.933C145.224 206.476 152.72 210.656 160.892 213.476C161.079 213.297 161.281 213.143 161.48 213.034C168.363 209.264 185.321 204.86 189.51 203.772L189.512 203.771C189.873 203.677 190.139 203.608 190.296 203.567C192.261 203.04 190.247 204.876 189.654 205.15L189.578 205.182L164.827 214.714C172.19 216.811 180.075 217.859 188.484 217.859C188.962 217.859 189.437 217.855 189.909 217.848L190.463 217.488L190.463 217.488L190.464 217.487L190.467 217.486C195.76 214.045 204.609 208.294 206.145 206.845L206.862 206.167C211.958 201.222 215.751 196.478 219.061 192.337C222.694 187.794 225.746 183.977 229.302 181.416C232.067 179.425 233.069 178.97 235.424 177.901C236.054 177.615 236.781 177.285 237.665 176.87C243.912 173.934 251.006 172.234 257.665 170.639L258.183 170.514ZM189.367 178.016C192.968 177.059 195.664 178.75 197.72 183.472L192.409 187.682L192.404 187.685L186.916 189.85L186.779 189.247C185.276 182.435 186.255 178.844 189.367 178.016ZM197.72 183.472L192.413 187.681C192.52 187.639 192.629 187.612 192.739 187.6C192.839 187.59 192.94 187.591 193.038 187.605C193.271 187.636 193.492 187.733 193.674 187.885C193.794 187.985 193.896 188.108 193.973 188.252C195.226 190.507 196.194 191.044 197.177 190.493C198.218 189.909 198.545 187.714 197.785 183.794L197.72 183.472ZM128.869 234.797C129.45 234.424 133.457 232.468 129.888 236.143C126.32 239.818 98.528 255.408 83.5259 256.271C69.0664 257.104 56.2283 251.065 45.0587 243.161L44.6885 242.897L44.6147 242.992C44.1202 243.619 43.6122 244.188 43.0901 244.699L42.8655 244.914C41.9194 245.802 40.2819 246.808 37.9161 247.976C37.2971 248.282 35.1101 248.563 36.2418 247.409C37.3735 246.255 39.8505 244.593 41.2931 243.64C42.2358 243.018 42.5336 242.29 42.829 241.567C42.9856 241.184 43.1415 240.803 43.3926 240.44C43.7958 239.856 44.603 239.725 45.1705 240.15C56.1818 248.403 69.0449 252.802 83.5259 251.969C98.0667 251.132 113.084 244.954 128.869 234.797ZM214.393 242.767C214.901 242.299 214.901 238.959 214.393 239.427C208.777 244.609 197.019 249.168 182.509 250.003C167.981 250.839 156.559 248.555 148.221 243.193C147.64 242.819 144.766 241.832 146.493 243.568C148.221 245.304 167.637 254.363 182.652 253.499L183.102 253.472C197.897 252.569 208.327 248.364 214.393 242.767ZM204.138 181.116L204.063 180.892L200.299 183.638L200.368 184.026C201.125 188.452 200.609 191.345 198.51 192.609L198.4 192.673C196.212 193.9 194.153 193.033 192.431 190.512L192.355 190.4L187.295 192.444L187.411 192.657C191.28 199.637 195.567 201.578 200.612 198.93L200.776 198.843C205.843 196.094 207.091 190.482 204.313 181.66L204.138 181.116ZM56.4999 79.25C56.4999 80.215 55.7149 81 54.7499 81C53.785 81 52.9999 80.2148 52.9999 79.25C52.9999 78.285 53.785 77.5 54.7499 77.5C55.7149 77.5 56.4999 78.285 56.4999 79.25Z" fill="#7F6DF8"/>
</svg>
