<svg width="11" height="19" viewBox="0 0 11 19" fill="none" xmlns="http://www.w3.org/2000/svg">
<path d="M1.20402 2.7959C0.99268 2.58456 0.873948 2.29791 0.873948 1.99903C0.873948 1.70014 0.99268 1.4135 1.20402 1.20215C1.41537 0.990807 1.70201 0.872074 2.0009 0.872074C2.29979 0.872074 2.58643 0.990807 2.79777 1.20215L10.2978 8.70215C10.4027 8.80667 10.4859 8.93086 10.5427 9.06761C10.5994 9.20435 10.6287 9.35096 10.6287 9.49903C10.6287 9.64709 10.5994 9.7937 10.5427 9.93045C10.4859 10.0672 10.4027 10.1914 10.2978 10.2959L2.79777 17.7959C2.58643 18.0072 2.29979 18.126 2.0009 18.126C1.70201 18.126 1.41537 18.0072 1.20402 17.7959C0.99268 17.5846 0.873948 17.2979 0.873948 16.999C0.873948 16.7001 0.99268 16.4135 1.20402 16.2022L7.90621 9.49996L1.20402 2.7959Z" fill="#8C8C8C"/>
</svg>
