<svg width="40" height="40" viewBox="0 0 40 40" fill="none" xmlns="http://www.w3.org/2000/svg">
<rect x="1.5" y="1.5" width="37" height="37" rx="18.5" fill="#060122"/>
<rect x="1.5" y="1.5" width="37" height="37" rx="18.5" stroke="#555555" stroke-width="3"/>
<path d="M16.25 18.125H11.75C11.4516 18.125 11.1655 18.0065 10.9545 17.7955C10.7435 17.5845 10.625 17.2984 10.625 17V12.5C10.625 12.2016 10.7435 11.9155 10.9545 11.7045C11.1655 11.4935 11.4516 11.375 11.75 11.375C12.0484 11.375 12.3345 11.4935 12.5455 11.7045C12.7565 11.9155 12.875 12.2016 12.875 12.5V13.7994C14.4359 12.2619 16.8397 10.625 20 10.625C24.1681 10.625 26.69 13.0991 26.7959 13.2041C27.0045 13.4152 27.1212 13.7003 27.1205 13.9971C27.1199 14.2939 27.002 14.5785 26.7924 14.7887C26.5829 14.999 26.2988 15.1179 26.002 15.1196C25.7052 15.1213 25.4197 15.0056 25.2078 14.7978C25.1666 14.7584 23.1875 12.875 20 12.875C17.2812 12.875 15.2244 14.5325 14 15.875H16.25C16.5484 15.875 16.8345 15.9935 17.0455 16.2045C17.2565 16.4155 17.375 16.7016 17.375 17C17.375 17.2984 17.2565 17.5845 17.0455 17.7955C16.8345 18.0065 16.5484 18.125 16.25 18.125ZM28.25 21.875H23.75C23.4516 21.875 23.1655 21.9935 22.9545 22.2045C22.7435 22.4155 22.625 22.7016 22.625 23C22.625 23.2984 22.7435 23.5845 22.9545 23.7955C23.1655 24.0065 23.4516 24.125 23.75 24.125H26C24.7812 25.4675 22.7187 27.125 20 27.125C16.8125 27.125 14.8334 25.2416 14.7922 25.2012C14.5803 24.9934 14.2948 24.8778 13.998 24.8795C13.7012 24.8812 13.4171 25.0001 13.2076 25.2103C12.998 25.4206 12.8801 25.7051 12.8795 26.002C12.8788 26.2988 12.9955 26.5838 13.2041 26.795C13.31 26.9009 15.8319 29.375 20 29.375C23.1603 29.375 25.5641 27.7381 27.125 26.2006V27.5C27.125 27.7984 27.2435 28.0845 27.4545 28.2955C27.6655 28.5065 27.9516 28.625 28.25 28.625C28.5484 28.625 28.8345 28.5065 29.0455 28.2955C29.2565 28.0845 29.375 27.7984 29.375 27.5V23C29.375 22.7016 29.2565 22.4155 29.0455 22.2045C28.8345 21.9935 28.5484 21.875 28.25 21.875Z" fill="white"/>
</svg>
